<?xml version="1.0" encoding="UTF-8" standalone="no"?>
<!DOCTYPE svg PUBLIC "-//W3C//DTD SVG 1.1//EN" "http://www.w3.org/Graphics/SVG/1.1/DTD/svg11.dtd">
<svg width="100%" height="100%" viewBox="0 0 6049 746" version="1.1" xmlns="http://www.w3.org/2000/svg" xmlns:xlink="http://www.w3.org/1999/xlink" xml:space="preserve" xmlns:serif="http://www.serif.com/" style="fill-rule:evenodd;clip-rule:evenodd;stroke-linecap:round;stroke-linejoin:round;stroke-miterlimit:1.5;">
    <g transform="matrix(1,0,0,1,0.504,-377.453)">
        <path d="M6047.24,393.753C6013.31,397.043 6001.69,413.816 6000,436.594C5853.36,392.771 5753.61,418.037 5692.91,500.855C5488.93,340.266 5245.18,367.203 4960.63,586.537C4772.31,511.538 4627.06,512.477 4535.43,607.957C4385.85,408.711 4155.74,405.86 3850.39,586.537C3750.25,519.886 3656.32,526.545 3566.93,586.537C3328.04,400.544 3091.78,397.477 2858.26,586.537C2714.3,435.663 2511.6,423.742 2244.09,565.117C2146.91,504.068 2052.44,504.395 1960.63,565.117C1714.55,434.63 1531.48,432.934 1417.32,586.537C1324.13,502.57 1209.9,483.472 1062.99,565.117C881.439,406.941 723.147,399.934 566.925,479.435C344.287,367.319 137.763,331.461 -0.004,458.015L-0.004,1122.05L6047.24,1122.05L6047.24,393.753L6047.24,393.753Z" style="fill:white;stroke:black;stroke-width:1px;"/>
    </g>
</svg>
