<?xml version="1.0" encoding="UTF-8" standalone="no"?><!DOCTYPE svg PUBLIC "-//W3C//DTD SVG 1.1//EN" "http://www.w3.org/Graphics/SVG/1.1/DTD/svg11.dtd"><svg width="100%" height="100%" viewBox="0 0 511 171" version="1.1" xmlns="http://www.w3.org/2000/svg" xmlns:xlink="http://www.w3.org/1999/xlink" xml:space="preserve" xmlns:serif="http://www.serif.com/" style="fill-rule:evenodd;clip-rule:evenodd;stroke-linejoin:round;stroke-miterlimit:2;"><g><path d="M-0.004,170.967l-0,-43.292l15.887,-0c2.796,-0 4.932,0.137 6.407,0.413c2.068,0.354 3.801,1.029 5.199,2.023c1.399,0.994 2.524,2.387 3.376,4.178c0.852,1.792 1.279,3.761 1.279,5.907c-0,3.681 -1.14,6.797 -3.419,9.346c-2.279,2.55 -6.397,3.824 -12.354,3.824l-10.802,0l0,17.601l-5.573,-0Zm5.573,-22.709l10.889,-0c3.6,-0 6.157,-0.689 7.67,-2.068c1.513,-1.378 2.27,-3.317 2.27,-5.817c-0,-1.811 -0.446,-3.362 -1.336,-4.651c-0.891,-1.29 -2.064,-2.141 -3.519,-2.555c-0.939,-0.256 -2.672,-0.384 -5.2,-0.384l-10.774,0l0,15.475Z" style="fill:#fff;fill-rule:nonzero;"/><path d="M58.488,167.098c-1.915,1.674 -3.759,2.855 -5.53,3.544c-1.772,0.689 -3.673,1.034 -5.703,1.034c-3.352,-0 -5.928,-0.842 -7.728,-2.525c-1.8,-1.684 -2.701,-3.834 -2.701,-6.453c0,-1.535 0.34,-2.938 1.02,-4.208c0.68,-1.27 1.571,-2.289 2.672,-3.056c1.101,-0.768 2.342,-1.349 3.721,-1.743c1.015,-0.275 2.547,-0.541 4.596,-0.797c4.175,-0.512 7.249,-1.122 9.222,-1.831c0.019,-0.728 0.029,-1.191 0.029,-1.388c-0,-2.166 -0.488,-3.691 -1.465,-4.577c-1.322,-1.201 -3.285,-1.802 -5.89,-1.802c-2.432,0 -4.228,0.438 -5.386,1.315c-1.159,0.876 -2.016,2.426 -2.572,4.651l-5.056,-0.709c0.46,-2.225 1.216,-4.021 2.27,-5.39c1.053,-1.368 2.576,-2.421 4.568,-3.159c1.991,-0.739 4.299,-1.108 6.923,-1.108c2.605,0 4.721,0.315 6.349,0.945c1.628,0.63 2.825,1.423 3.591,2.378c0.767,0.954 1.303,2.16 1.609,3.617c0.173,0.906 0.259,2.54 0.259,4.902l-0,7.088c-0,4.941 0.11,8.066 0.33,9.376c0.22,1.309 0.656,2.564 1.307,3.765l-5.401,-0c-0.536,-1.103 -0.881,-2.392 -1.034,-3.869Zm-0.431,-11.871c-1.877,0.787 -4.692,1.457 -8.446,2.008c-2.126,0.315 -3.63,0.669 -4.511,1.063c-0.881,0.394 -1.561,0.97 -2.039,1.728c-0.479,0.758 -0.719,1.599 -0.719,2.525c0,1.417 0.522,2.598 1.566,3.543c1.044,0.945 2.571,1.418 4.582,1.418c1.992,-0 3.764,-0.448 5.315,-1.344c1.552,-0.896 2.691,-2.121 3.419,-3.677c0.555,-1.2 0.833,-2.972 0.833,-5.315l0,-1.949Z" style="fill:#fff;fill-rule:nonzero;"/><path d="M69.233,161.606l5.114,-0.827c0.287,2.106 1.086,3.721 2.398,4.843c1.312,1.122 3.146,1.683 5.502,1.683c2.375,0 4.137,-0.497 5.286,-1.491c1.149,-0.994 1.724,-2.161 1.724,-3.5c-0,-1.201 -0.508,-2.146 -1.523,-2.835c-0.708,-0.472 -2.47,-1.073 -5.286,-1.801c-3.792,-0.984 -6.421,-1.836 -7.886,-2.554c-1.465,-0.719 -2.576,-1.713 -3.333,-2.983c-0.756,-1.27 -1.134,-2.673 -1.134,-4.208c-0,-1.398 0.311,-2.692 0.933,-3.884c0.623,-1.191 1.47,-2.18 2.543,-2.967c0.804,-0.611 1.901,-1.128 3.289,-1.551c1.389,-0.423 2.878,-0.635 4.468,-0.635c2.394,0 4.496,0.355 6.306,1.063c1.81,0.709 3.146,1.669 4.007,2.88c0.862,1.21 1.456,2.83 1.782,4.857l-5.057,0.709c-0.23,-1.614 -0.895,-2.874 -1.996,-3.78c-1.102,-0.905 -2.658,-1.358 -4.669,-1.358c-2.375,-0 -4.07,0.403 -5.085,1.211c-1.015,0.807 -1.523,1.752 -1.523,2.835c0,0.689 0.211,1.309 0.633,1.86c0.421,0.571 1.082,1.043 1.982,1.418c0.517,0.196 2.04,0.649 4.568,1.358c3.658,1.004 6.21,1.826 7.656,2.466c1.446,0.64 2.581,1.57 3.404,2.79c0.824,1.221 1.236,2.737 1.236,4.548c-0,1.772 -0.503,3.441 -1.509,5.006c-1.005,1.565 -2.456,2.776 -4.352,3.632c-1.896,0.856 -4.041,1.285 -6.435,1.285c-3.965,-0 -6.986,-0.847 -9.064,-2.54c-2.078,-1.693 -3.405,-4.203 -3.979,-7.53Z" style="fill:#fff;fill-rule:nonzero;"/><path d="M112.01,166.212l0.747,4.696c-1.455,0.315 -2.758,0.472 -3.907,0.472c-1.877,0 -3.332,-0.305 -4.367,-0.915c-1.034,-0.61 -1.762,-1.413 -2.183,-2.407c-0.421,-0.994 -0.632,-3.086 -0.632,-6.275l-0,-18.044l-3.792,0l-0,-4.134l3.792,0l-0,-7.767l5.142,-3.189l0,10.956l5.2,0l0,4.134l-5.2,0l0,18.339c0,1.516 0.091,2.491 0.273,2.924c0.182,0.433 0.479,0.777 0.891,1.033c0.412,0.256 1.001,0.384 1.767,0.384c0.574,0 1.331,-0.069 2.269,-0.207Z" style="fill:#fff;fill-rule:nonzero;"/><path d="M137.953,160.867l5.343,0.68c-0.843,3.209 -2.403,5.699 -4.683,7.471c-2.279,1.772 -5.19,2.658 -8.733,2.658c-4.463,-0 -8.001,-1.413 -10.616,-4.238c-2.614,-2.825 -3.921,-6.787 -3.921,-11.886c-0,-5.276 1.321,-9.371 3.964,-12.285c2.644,-2.914 6.072,-4.371 10.285,-4.371c4.08,0 7.413,1.428 9.998,4.282c2.586,2.855 3.879,6.871 3.879,12.049c-0,0.315 -0.01,0.787 -0.029,1.417l-22.754,0c0.192,3.446 1.14,6.084 2.845,7.915c1.704,1.831 3.83,2.746 6.377,2.746c1.897,0 3.515,-0.512 4.856,-1.536c1.34,-1.023 2.403,-2.657 3.189,-4.902Zm-16.979,-8.593l17.036,-0c-0.23,-2.638 -0.881,-4.617 -1.954,-5.936c-1.647,-2.047 -3.782,-3.071 -6.406,-3.071c-2.375,-0 -4.372,0.817 -5.99,2.451c-1.619,1.634 -2.514,3.819 -2.686,6.556Z" style="fill:#fff;fill-rule:nonzero;"/><path d="M169.784,170.967l0,-4.607c-2.375,3.544 -5.602,5.316 -9.681,5.316c-1.801,-0 -3.481,-0.355 -5.042,-1.063c-1.561,-0.709 -2.72,-1.6 -3.477,-2.673c-0.756,-1.073 -1.288,-2.387 -1.594,-3.942c-0.211,-1.044 -0.316,-2.698 -0.316,-4.962l0,-19.431l5.171,0l0,17.394c0,2.776 0.106,4.646 0.316,5.611c0.326,1.397 1.015,2.495 2.069,3.292c1.053,0.798 2.356,1.196 3.907,1.196c1.551,0 3.007,-0.408 4.367,-1.225c1.36,-0.817 2.322,-1.93 2.887,-3.337c0.565,-1.408 0.847,-3.45 0.847,-6.128l0,-16.803l5.172,0l-0,31.362l-4.626,-0Z" style="fill:#fff;fill-rule:nonzero;"/><path d="M182.454,170.967l-0,-31.362l4.654,0l-0,4.755c1.187,-2.225 2.284,-3.692 3.289,-4.401c1.006,-0.708 2.112,-1.063 3.319,-1.063c1.742,0 3.514,0.571 5.314,1.713l-1.781,4.932c-1.264,-0.768 -2.528,-1.152 -3.792,-1.152c-1.13,0 -2.145,0.349 -3.045,1.048c-0.9,0.699 -1.542,1.669 -1.925,2.909c-0.575,1.89 -0.862,3.957 -0.862,6.202l0,16.419l-5.171,-0Z" style="fill:#fff;fill-rule:nonzero;"/><path d="M202.593,170.967l-0,-43.292l8.389,-0l9.969,30.653c0.919,2.854 1.589,4.99 2.011,6.408c0.479,-1.575 1.226,-3.888 2.241,-6.94l10.083,-30.121l7.499,-0l-0,43.292l-5.373,-0l0,-36.235l-12.238,36.235l-5.028,-0l-12.181,-36.855l0,36.855l-5.372,-0Z" style="fill:#fff;fill-rule:nonzero;"/><path d="M249.191,155.286c0,-5.808 1.571,-10.109 4.712,-12.905c2.624,-2.323 5.822,-3.485 9.595,-3.485c4.195,0 7.623,1.413 10.285,4.238c2.663,2.825 3.994,6.728 3.994,11.709c-0,4.036 -0.589,7.21 -1.767,9.524c-1.178,2.313 -2.892,4.109 -5.143,5.389c-2.25,1.28 -4.706,1.92 -7.369,1.92c-4.271,-0 -7.723,-1.408 -10.356,-4.223c-2.634,-2.816 -3.951,-6.871 -3.951,-12.167Zm5.315,-0c0,4.016 0.853,7.023 2.557,9.022c1.705,1.998 3.85,2.997 6.435,2.997c2.567,0 4.702,-1.004 6.407,-3.012c1.705,-2.008 2.557,-5.07 2.557,-9.184c-0,-3.879 -0.857,-6.817 -2.571,-8.815c-1.715,-1.998 -3.845,-2.998 -6.393,-2.998c-2.585,0 -4.73,0.995 -6.435,2.983c-1.704,1.988 -2.557,4.991 -2.557,9.007Z" style="fill:#fff;fill-rule:nonzero;"/><path d="M283.839,170.967l-0,-31.362l4.654,0l-0,4.459c2.241,-3.445 5.477,-5.168 9.71,-5.168c1.839,0 3.529,0.34 5.071,1.019c1.542,0.679 2.695,1.57 3.462,2.673c0.766,1.102 1.302,2.411 1.608,3.927c0.192,0.985 0.288,2.707 0.288,5.168l-0,19.284l-5.172,-0l0,-19.077c0,-2.166 -0.201,-3.785 -0.603,-4.858c-0.402,-1.073 -1.115,-1.929 -2.14,-2.569c-1.025,-0.64 -2.227,-0.96 -3.606,-0.96c-2.202,0 -4.103,0.719 -5.702,2.156c-1.6,1.437 -2.399,4.164 -2.399,8.18l-0,17.128l-5.171,-0Z" style="fill:#fff;fill-rule:nonzero;"/><path d="M327.851,166.212l0.747,4.696c-1.455,0.315 -2.758,0.472 -3.907,0.472c-1.877,0 -3.332,-0.305 -4.367,-0.915c-1.034,-0.61 -1.762,-1.413 -2.183,-2.407c-0.421,-0.994 -0.632,-3.086 -0.632,-6.275l-0,-18.044l-3.792,0l-0,-4.134l3.792,0l-0,-7.767l5.142,-3.189l0,10.956l5.2,0l0,4.134l-5.2,0l0,18.339c0,1.516 0.091,2.491 0.273,2.924c0.182,0.433 0.479,0.777 0.891,1.033c0.412,0.256 1.001,0.384 1.767,0.384c0.574,0 1.331,-0.069 2.269,-0.207Z" style="fill:#fff;fill-rule:nonzero;"/><path d="M333.655,170.967l-0,-43.292l18.674,-0c3.753,-0 6.607,0.388 8.561,1.166c1.953,0.778 3.514,2.151 4.683,4.12c1.168,1.968 1.752,4.144 1.752,6.526c0,3.071 -0.967,5.66 -2.902,7.767c-1.934,2.106 -4.922,3.445 -8.963,4.016c1.475,0.728 2.595,1.447 3.361,2.155c1.628,1.536 3.17,3.456 4.626,5.759l7.326,11.783l-7.01,-0l-5.574,-9.007c-1.628,-2.599 -2.968,-4.587 -4.022,-5.965c-1.053,-1.378 -1.996,-2.343 -2.83,-2.894c-0.833,-0.552 -1.68,-0.935 -2.542,-1.152c-0.632,-0.138 -1.666,-0.207 -3.103,-0.207l-6.464,0l0,19.225l-5.573,-0Zm5.573,-24.186l11.98,0c2.547,0 4.539,-0.271 5.976,-0.812c1.436,-0.541 2.528,-1.408 3.275,-2.599c0.747,-1.191 1.12,-2.485 1.12,-3.883c0,-2.048 -0.723,-3.731 -2.169,-5.05c-1.446,-1.319 -3.73,-1.978 -6.852,-1.978l-13.33,-0l0,14.322Z" style="fill:#fff;fill-rule:nonzero;"/><path d="M373.473,155.286c0,-5.808 1.571,-10.109 4.712,-12.905c2.624,-2.323 5.822,-3.485 9.595,-3.485c4.195,0 7.623,1.413 10.285,4.238c2.662,2.825 3.993,6.728 3.993,11.709c0,4.036 -0.588,7.21 -1.766,9.524c-1.178,2.313 -2.892,4.109 -5.143,5.389c-2.25,1.28 -4.707,1.92 -7.369,1.92c-4.271,-0 -7.723,-1.408 -10.357,-4.223c-2.633,-2.816 -3.95,-6.871 -3.95,-12.167Zm5.315,-0c-0,4.016 0.852,7.023 2.557,9.022c1.704,1.998 3.85,2.997 6.435,2.997c2.567,0 4.702,-1.004 6.407,-3.012c1.704,-2.008 2.557,-5.07 2.557,-9.184c-0,-3.879 -0.857,-6.817 -2.572,-8.815c-1.714,-1.998 -3.845,-2.998 -6.392,-2.998c-2.585,0 -4.731,0.995 -6.435,2.983c-1.705,1.988 -2.557,4.991 -2.557,9.007Z" style="fill:#fff;fill-rule:nonzero;"/><rect x="408.005" y="127.675" width="5.171" height="43.292" style="fill:#fff;fill-rule:nonzero;"/><path d="M441.101,167.098c-1.915,1.674 -3.759,2.855 -5.53,3.544c-1.772,0.689 -3.673,1.034 -5.703,1.034c-3.352,-0 -5.928,-0.842 -7.728,-2.525c-1.8,-1.684 -2.7,-3.834 -2.7,-6.453c-0,-1.535 0.339,-2.938 1.019,-4.208c0.68,-1.27 1.571,-2.289 2.672,-3.056c1.101,-0.768 2.342,-1.349 3.721,-1.743c1.015,-0.275 2.547,-0.541 4.596,-0.797c4.176,-0.512 7.25,-1.122 9.222,-1.831c0.019,-0.728 0.029,-1.191 0.029,-1.388c-0,-2.166 -0.488,-3.691 -1.465,-4.577c-1.322,-1.201 -3.285,-1.802 -5.89,-1.802c-2.432,0 -4.228,0.438 -5.386,1.315c-1.159,0.876 -2.016,2.426 -2.572,4.651l-5.056,-0.709c0.46,-2.225 1.216,-4.021 2.27,-5.39c1.053,-1.368 2.576,-2.421 4.568,-3.159c1.991,-0.739 4.299,-1.108 6.923,-1.108c2.605,0 4.721,0.315 6.349,0.945c1.628,0.63 2.825,1.423 3.592,2.378c0.766,0.954 1.302,2.16 1.608,3.617c0.173,0.906 0.259,2.54 0.259,4.902l-0,7.088c-0,4.941 0.11,8.066 0.33,9.376c0.221,1.309 0.656,2.564 1.307,3.765l-5.401,-0c-0.536,-1.103 -0.881,-2.392 -1.034,-3.869Zm-0.431,-11.871c-1.877,0.787 -4.692,1.457 -8.446,2.008c-2.126,0.315 -3.63,0.669 -4.511,1.063c-0.881,0.394 -1.56,0.97 -2.039,1.728c-0.479,0.758 -0.719,1.599 -0.719,2.525c0,1.417 0.522,2.598 1.566,3.543c1.044,0.945 2.571,1.418 4.582,1.418c1.992,-0 3.764,-0.448 5.315,-1.344c1.552,-0.896 2.691,-2.121 3.419,-3.677c0.556,-1.2 0.833,-2.972 0.833,-5.315l0,-1.949Z" style="fill:#fff;fill-rule:nonzero;"/><path d="M453.914,170.967l0,-31.362l4.654,0l0,4.459c2.241,-3.445 5.478,-5.168 9.711,-5.168c1.839,0 3.529,0.34 5.071,1.019c1.541,0.679 2.695,1.57 3.461,2.673c0.766,1.102 1.303,2.411 1.609,3.927c0.192,0.985 0.287,2.707 0.287,5.168l0,19.284l-5.171,-0l0,-19.077c0,-2.166 -0.201,-3.785 -0.603,-4.858c-0.402,-1.073 -1.116,-1.929 -2.14,-2.569c-1.025,-0.64 -2.227,-0.96 -3.606,-0.96c-2.202,0 -4.103,0.719 -5.703,2.156c-1.599,1.437 -2.398,4.164 -2.398,8.18l-0,17.128l-5.172,-0Z" style="fill:#fff;fill-rule:nonzero;"/><path d="M506.431,170.967l-0,-3.957c-1.934,3.11 -4.779,4.666 -8.533,4.666c-2.432,-0 -4.668,-0.689 -6.708,-2.068c-2.04,-1.378 -3.62,-3.302 -4.74,-5.773c-1.12,-2.471 -1.681,-5.31 -1.681,-8.52c0,-3.13 0.508,-5.97 1.523,-8.519c1.015,-2.55 2.538,-4.504 4.568,-5.862c2.03,-1.359 4.3,-2.038 6.809,-2.038c1.838,0 3.476,0.399 4.912,1.196c1.437,0.798 2.605,1.836 3.505,3.116l0,-15.533l5.143,-0l-0,43.292l-4.798,-0Zm-16.347,-15.652c0,4.017 0.824,7.019 2.471,9.007c1.647,1.989 3.591,2.983 5.832,2.983c2.26,0 4.18,-0.95 5.76,-2.85c1.58,-1.9 2.37,-4.798 2.37,-8.697c0,-4.291 -0.804,-7.441 -2.413,-9.449c-1.609,-2.009 -3.591,-3.013 -5.947,-3.013c-2.298,0 -4.218,0.965 -5.76,2.894c-1.542,1.93 -2.313,4.971 -2.313,9.125Z" style="fill:#fff;fill-rule:nonzero;"/></g><g><path d="M156.338,110.032l30.123,-80.629l11.183,0l32.104,80.629l-11.825,0l-9.15,-24.419l-32.799,-0l-8.614,24.419l-11.022,0Zm22.633,-33.109l26.592,-0l-8.186,-22.33c-2.497,-6.783 -4.352,-12.357 -5.565,-16.72c-0.999,5.17 -2.408,10.303 -4.227,15.4l-8.614,23.65Z" style="fill:#fff;fill-rule:nonzero;"/><path d="M251.779,110.032l0,-34.154l-30.231,-46.475l12.628,0l15.463,24.31c2.854,4.547 5.511,9.093 7.972,13.64c2.355,-4.217 5.208,-8.965 8.561,-14.245l15.196,-23.705l12.092,0l-31.301,46.475l0,34.154l-10.38,0Z" style="fill:#fff;fill-rule:nonzero;"/><path d="M285.796,110.032l30.124,-80.629l11.183,0l32.103,80.629l-11.825,0l-9.149,-24.419l-32.799,-0l-8.615,24.419l-11.022,0Zm22.633,-33.109l26.592,-0l-8.186,-22.33c-2.497,-6.783 -4.352,-12.357 -5.565,-16.72c-0.998,5.17 -2.407,10.303 -4.227,15.4l-8.614,23.65Z" style="fill:#fff;fill-rule:nonzero;"/></g><path d="M359.208,109.874l-202.723,-0.073c-0,0 0.005,0.096 0.015,0.253c0.094,1.609 1.427,2.865 3.038,2.865c22.72,0 173.265,0 196.626,0c1.681,0 3.044,-1.362 3.044,-3.044l0,-0.001Z" style="fill:#fff;"/><path d="M327.472,30.043c0,-0.807 -0.32,-1.581 -0.891,-2.152c-0.571,-0.571 -1.345,-0.892 -2.153,-0.892c-18.558,0 -116.293,0 -134.852,0c-0.807,0 -1.581,0.321 -2.152,0.892c-0.571,0.571 -0.892,1.345 -0.892,2.152c0,0.001 0,0.001 0,0.001l140.94,0l0,-0.001Z" style="fill:#fff;"/></svg>