<?xml version="1.0" encoding="UTF-8" standalone="no"?><!DOCTYPE svg PUBLIC "-//W3C//DTD SVG 1.1//EN" "http://www.w3.org/Graphics/SVG/1.1/DTD/svg11.dtd"><svg width="100%" height="100%" viewBox="0 0 511 171" version="1.1" xmlns="http://www.w3.org/2000/svg" xmlns:xlink="http://www.w3.org/1999/xlink" xml:space="preserve" xmlns:serif="http://www.serif.com/" style="fill-rule:evenodd;clip-rule:evenodd;stroke-linejoin:round;stroke-miterlimit:2;"><g><path d="M156.764,91.249l30.124,-80.629l11.183,-0l32.104,80.629l-11.825,-0l-9.15,-24.42l-32.799,-0l-8.614,24.42l-11.023,-0Zm22.633,-33.11l26.593,0l-8.187,-22.33c-2.496,-6.783 -4.351,-12.356 -5.564,-16.72c-0.999,5.17 -2.408,10.304 -4.227,15.4l-8.615,23.65Z" style="fill:#fff;fill-rule:nonzero;"/><path d="M252.206,91.249l0,-34.155l-30.231,-46.474l12.628,-0l15.463,24.309c2.853,4.547 5.511,9.094 7.972,13.64c2.354,-4.216 5.208,-8.965 8.561,-14.245l15.196,-23.704l12.092,-0l-31.301,46.474l0,34.155l-10.38,-0Z" style="fill:#fff;fill-rule:nonzero;"/><path d="M286.223,91.249l30.124,-80.629l11.182,-0l32.104,80.629l-11.825,-0l-9.149,-24.42l-32.799,-0l-8.615,24.42l-11.022,-0Zm22.633,-33.11l26.592,0l-8.186,-22.33c-2.497,-6.783 -4.352,-12.356 -5.565,-16.72c-0.999,5.17 -2.408,10.304 -4.227,15.4l-8.614,23.65Z" style="fill:#fff;fill-rule:nonzero;"/></g><g><path d="M39.627,159.795l0,-34.993l-12.716,0l-0,-4.682l30.593,0l0,4.682l-12.769,0l0,34.993l-5.108,-0Z" style="fill:#fff;fill-rule:nonzero;"/><path d="M58.869,170.864l-0.526,-4.574c1.035,0.289 1.939,0.433 2.712,0.433c1.053,0 1.895,-0.18 2.527,-0.541c0.632,-0.361 1.15,-0.866 1.553,-1.516c0.299,-0.487 0.782,-1.696 1.449,-3.626c0.087,-0.271 0.228,-0.668 0.421,-1.191l-10.611,-28.795l5.108,-0l5.819,16.644c0.754,2.111 1.43,4.33 2.027,6.657c0.544,-2.237 1.194,-4.42 1.948,-6.549l5.977,-16.752l4.739,-0l-10.637,29.228c-1.141,3.158 -2.027,5.332 -2.659,6.522c-0.842,1.606 -1.808,2.783 -2.896,3.532c-1.088,0.749 -2.387,1.123 -3.897,1.123c-0.912,0 -1.93,-0.198 -3.054,-0.595Z" style="fill:#fff;fill-rule:nonzero;"/><path d="M86.04,170.81l0,-39.756l4.318,-0l-0,3.735c1.018,-1.462 2.168,-2.558 3.449,-3.289c1.281,-0.73 2.835,-1.096 4.66,-1.096c2.387,0 4.493,0.632 6.319,1.895c1.825,1.263 3.203,3.044 4.133,5.345c0.931,2.3 1.396,4.822 1.396,7.564c-0,2.941 -0.514,5.588 -1.54,7.943c-1.027,2.354 -2.519,4.159 -4.476,5.413c-1.957,1.254 -4.015,1.881 -6.174,1.881c-1.58,-0 -2.997,-0.343 -4.252,-1.029c-1.255,-0.685 -2.286,-1.552 -3.094,-2.598l0,13.992l-4.739,-0Zm4.292,-25.223c-0,3.698 0.728,6.432 2.185,8.2c1.457,1.768 3.221,2.652 5.292,2.652c2.106,0 3.91,-0.915 5.41,-2.747c1.501,-1.831 2.251,-4.668 2.251,-8.511c0,-3.663 -0.732,-6.405 -2.198,-8.227c-1.466,-1.823 -3.216,-2.734 -5.252,-2.734c-2.019,0 -3.805,0.97 -5.358,2.91c-1.554,1.939 -2.33,4.758 -2.33,8.457Z" style="fill:#fff;fill-rule:nonzero;"/><path d="M135.169,150.539l4.897,0.623c-0.772,2.941 -2.203,5.223 -4.292,6.847c-2.088,1.624 -4.756,2.436 -8.003,2.436c-4.09,-0 -7.333,-1.295 -9.729,-3.884c-2.396,-2.589 -3.594,-6.22 -3.594,-10.893c0,-4.835 1.211,-8.588 3.634,-11.258c2.422,-2.671 5.564,-4.006 9.425,-4.006c3.739,0 6.793,1.308 9.162,3.925c2.37,2.616 3.555,6.296 3.555,11.041c-0,0.289 -0.009,0.722 -0.027,1.299l-20.852,0c0.176,3.158 1.045,5.575 2.607,7.253c1.562,1.678 3.51,2.517 5.845,2.517c1.738,0 3.221,-0.469 4.449,-1.407c1.229,-0.938 2.203,-2.436 2.923,-4.493Zm-15.56,-7.875l15.612,-0c-0.21,-2.418 -0.807,-4.231 -1.79,-5.44c-1.509,-1.876 -3.466,-2.814 -5.871,-2.814c-2.177,-0 -4.006,0.748 -5.49,2.246c-1.483,1.497 -2.303,3.5 -2.461,6.008Z" style="fill:#fff;fill-rule:nonzero;"/><path d="M161.602,159.795l0,-39.675l13.296,0c3.002,0 5.292,0.19 6.872,0.569c2.211,0.523 4.098,1.47 5.66,2.841c2.037,1.768 3.559,4.028 4.568,6.78c1.01,2.751 1.514,5.895 1.514,9.431c0,3.013 -0.342,5.683 -1.027,8.011c-0.684,2.327 -1.562,4.253 -2.632,5.778c-1.071,1.524 -2.243,2.724 -3.515,3.599c-1.273,0.875 -2.809,1.538 -4.608,1.989c-1.799,0.451 -3.865,0.677 -6.2,0.677l-13.928,-0Zm5.108,-4.682l8.241,0c2.545,0 4.541,-0.244 5.99,-0.731c1.448,-0.487 2.602,-1.172 3.462,-2.056c1.211,-1.245 2.154,-2.919 2.83,-5.021c0.676,-2.102 1.014,-4.65 1.014,-7.645c-0,-4.15 -0.663,-7.339 -1.988,-9.567c-1.325,-2.228 -2.936,-3.721 -4.831,-4.479c-1.369,-0.541 -3.572,-0.812 -6.609,-0.812l-8.109,0l0,30.311Z" style="fill:#fff;fill-rule:nonzero;"/><path d="M219.077,150.539l4.897,0.623c-0.772,2.941 -2.203,5.223 -4.291,6.847c-2.089,1.624 -4.757,2.436 -8.004,2.436c-4.09,-0 -7.333,-1.295 -9.728,-3.884c-2.396,-2.589 -3.594,-6.22 -3.594,-10.893c-0,-4.835 1.211,-8.588 3.633,-11.258c2.422,-2.671 5.564,-4.006 9.426,-4.006c3.738,0 6.792,1.308 9.162,3.925c2.369,2.616 3.554,6.296 3.554,11.041c0,0.289 -0.009,0.722 -0.026,1.299l-20.852,0c0.175,3.158 1.044,5.575 2.606,7.253c1.562,1.678 3.511,2.517 5.845,2.517c1.738,0 3.221,-0.469 4.45,-1.407c1.228,-0.938 2.202,-2.436 2.922,-4.493Zm-15.56,-7.875l15.613,-0c-0.211,-2.418 -0.808,-4.231 -1.791,-5.44c-1.509,-1.876 -3.466,-2.814 -5.871,-2.814c-2.176,-0 -4.006,0.748 -5.489,2.246c-1.483,1.497 -2.304,3.5 -2.462,6.008Z" style="fill:#fff;fill-rule:nonzero;"/><path d="M273.05,145.885l5.108,1.326c-1.071,4.312 -2.997,7.6 -5.779,9.864c-2.782,2.264 -6.183,3.397 -10.202,3.397c-4.16,-0 -7.544,-0.871 -10.15,-2.612c-2.607,-1.741 -4.59,-4.262 -5.95,-7.564c-1.361,-3.302 -2.041,-6.847 -2.041,-10.636c0,-4.132 0.768,-7.736 2.304,-10.812c1.536,-3.076 3.721,-5.412 6.556,-7.009c2.834,-1.597 5.954,-2.395 9.359,-2.395c3.862,-0 7.109,1.01 9.742,3.031c2.633,2.021 4.467,4.862 5.503,8.525l-5.029,1.218c-0.895,-2.887 -2.194,-4.989 -3.897,-6.306c-1.702,-1.317 -3.844,-1.976 -6.424,-1.976c-2.966,0 -5.445,0.731 -7.438,2.192c-1.992,1.462 -3.392,3.424 -4.199,5.887c-0.807,2.462 -1.211,5.002 -1.211,7.618c-0,3.374 0.478,6.319 1.435,8.836c0.956,2.517 2.444,4.398 4.463,5.643c2.018,1.245 4.203,1.867 6.555,1.867c2.861,0 5.283,-0.848 7.267,-2.544c1.983,-1.696 3.326,-4.213 4.028,-7.55Z" style="fill:#fff;fill-rule:nonzero;"/><path d="M282.081,145.424c-0,-5.322 1.439,-9.264 4.318,-11.826c2.404,-2.129 5.335,-3.194 8.793,-3.194c3.844,0 6.986,1.295 9.426,3.884c2.439,2.589 3.659,6.166 3.659,10.73c0,3.699 -0.539,6.608 -1.619,8.728c-1.079,2.12 -2.65,3.767 -4.713,4.939c-2.062,1.173 -4.313,1.76 -6.753,1.76c-3.914,-0 -7.078,-1.29 -9.491,-3.871c-2.414,-2.58 -3.62,-6.296 -3.62,-11.15Zm4.87,0c0,3.681 0.782,6.437 2.344,8.268c1.562,1.832 3.528,2.747 5.897,2.747c2.352,0 4.309,-0.92 5.871,-2.76c1.563,-1.841 2.344,-4.646 2.344,-8.417c-0,-3.554 -0.786,-6.247 -2.357,-8.078c-1.571,-1.832 -3.523,-2.747 -5.858,-2.747c-2.369,-0 -4.335,0.911 -5.897,2.733c-1.562,1.822 -2.344,4.574 -2.344,8.254Z" style="fill:#fff;fill-rule:nonzero;"/><path d="M313.833,159.795l-0,-28.741l4.265,-0l-0,4.086c2.053,-3.157 5.02,-4.736 8.899,-4.736c1.685,0 3.234,0.312 4.647,0.934c1.413,0.622 2.47,1.439 3.172,2.449c0.702,1.011 1.194,2.21 1.475,3.6c0.175,0.902 0.263,2.48 0.263,4.736l-0,17.672l-4.739,-0l-0,-17.483c-0,-1.984 -0.184,-3.468 -0.553,-4.452c-0.369,-0.983 -1.022,-1.768 -1.961,-2.354c-0.94,-0.587 -2.041,-0.88 -3.305,-0.88c-2.018,0 -3.76,0.659 -5.226,1.976c-1.465,1.317 -2.198,3.816 -2.198,7.496l-0,15.697l-4.739,-0Z" style="fill:#fff;fill-rule:nonzero;"/><path d="M343.821,159.795l-0,-28.741l4.265,-0l-0,4.086c2.053,-3.157 5.02,-4.736 8.899,-4.736c1.685,0 3.234,0.312 4.647,0.934c1.413,0.622 2.47,1.439 3.172,2.449c0.702,1.011 1.194,2.21 1.475,3.6c0.175,0.902 0.263,2.48 0.263,4.736l-0,17.672l-4.739,-0l-0,-17.483c-0,-1.984 -0.184,-3.468 -0.553,-4.452c-0.369,-0.983 -1.022,-1.768 -1.962,-2.354c-0.939,-0.587 -2.04,-0.88 -3.304,-0.88c-2.018,0 -3.76,0.659 -5.226,1.976c-1.466,1.317 -2.198,3.816 -2.198,7.496l-0,15.697l-4.739,-0Z" style="fill:#fff;fill-rule:nonzero;"/><path d="M392.949,150.539l4.897,0.623c-0.772,2.941 -2.203,5.223 -4.291,6.847c-2.089,1.624 -4.757,2.436 -8.004,2.436c-4.09,-0 -7.332,-1.295 -9.728,-3.884c-2.396,-2.589 -3.594,-6.22 -3.594,-10.893c-0,-4.835 1.211,-8.588 3.633,-11.258c2.422,-2.671 5.564,-4.006 9.426,-4.006c3.738,0 6.792,1.308 9.162,3.925c2.369,2.616 3.554,6.296 3.554,11.041c0,0.289 -0.009,0.722 -0.026,1.299l-20.852,0c0.175,3.158 1.044,5.575 2.606,7.253c1.563,1.678 3.511,2.517 5.845,2.517c1.738,0 3.221,-0.469 4.45,-1.407c1.228,-0.938 2.203,-2.436 2.922,-4.493Zm-15.56,-7.875l15.613,-0c-0.211,-2.418 -0.808,-4.231 -1.79,-5.44c-1.51,-1.876 -3.467,-2.814 -5.872,-2.814c-2.176,-0 -4.006,0.748 -5.489,2.246c-1.483,1.497 -2.304,3.5 -2.462,6.008Z" style="fill:#fff;fill-rule:nonzero;"/><path d="M400.637,159.795l10.215,-14.939l-9.451,-13.802l5.923,-0l4.292,6.739c0.807,1.281 1.457,2.354 1.948,3.22c0.773,-1.191 1.483,-2.246 2.133,-3.166l4.713,-6.793l5.66,-0l-9.662,13.531l10.399,15.21l-5.818,-0l-5.74,-8.931l-1.527,-2.408l-7.345,11.339l-5.74,-0Z" style="fill:#fff;fill-rule:nonzero;"/><path d="M430.783,125.722l-0,-5.602l4.739,0l0,5.602l-4.739,0Zm-0,34.073l-0,-28.741l4.739,-0l0,28.741l-4.739,-0Z" style="fill:#fff;fill-rule:nonzero;"/><path d="M440.972,145.424c0,-5.322 1.439,-9.264 4.318,-11.826c2.405,-2.129 5.336,-3.194 8.794,-3.194c3.843,0 6.985,1.295 9.425,3.884c2.44,2.589 3.66,6.166 3.66,10.73c-0,3.699 -0.54,6.608 -1.62,8.728c-1.079,2.12 -2.65,3.767 -4.712,4.939c-2.063,1.173 -4.314,1.76 -6.753,1.76c-3.915,-0 -7.078,-1.29 -9.492,-3.871c-2.413,-2.58 -3.62,-6.296 -3.62,-11.15Zm4.871,0c-0,3.681 0.781,6.437 2.343,8.268c1.562,1.832 3.528,2.747 5.898,2.747c2.352,0 4.309,-0.92 5.871,-2.76c1.562,-1.841 2.343,-4.646 2.343,-8.417c-0,-3.554 -0.786,-6.247 -2.356,-8.078c-1.571,-1.832 -3.524,-2.747 -5.858,-2.747c-2.37,-0 -4.336,0.911 -5.898,2.733c-1.562,1.822 -2.343,4.574 -2.343,8.254Z" style="fill:#fff;fill-rule:nonzero;"/><path d="M472.724,159.795l-0,-28.741l4.265,-0l0,4.086c2.054,-3.157 5.02,-4.736 8.899,-4.736c1.685,0 3.234,0.312 4.647,0.934c1.413,0.622 2.471,1.439 3.173,2.449c0.702,1.011 1.193,2.21 1.474,3.6c0.176,0.902 0.263,2.48 0.263,4.736l0,17.672l-4.739,-0l0,-17.483c0,-1.984 -0.184,-3.468 -0.553,-4.452c-0.368,-0.983 -1.022,-1.768 -1.961,-2.354c-0.939,-0.587 -2.041,-0.88 -3.304,-0.88c-2.019,0 -3.761,0.659 -5.227,1.976c-1.465,1.317 -2.198,3.816 -2.198,7.496l0,15.697l-4.739,-0Z" style="fill:#fff;fill-rule:nonzero;"/></g><path d="M359.635,91.091l-202.723,-0.073c-0,-0 0.005,0.095 0.015,0.253c0.094,1.609 1.427,2.865 3.038,2.865c22.72,-0 173.264,-0 196.626,-0c1.681,-0 3.044,-1.363 3.044,-3.044l0,-0.001Z" style="fill:#fff;"/><path d="M327.899,11.26c0,-0.808 -0.321,-1.582 -0.891,-2.153c-0.571,-0.571 -1.345,-0.891 -2.153,-0.891c-18.558,-0 -116.294,-0 -134.852,-0c-0.807,-0 -1.581,0.32 -2.152,0.891c-0.571,0.571 -0.892,1.345 -0.892,2.153c0,0 0,0.001 0,0.001l140.94,-0l0,-0.001Z" style="fill:#fff;"/></svg>