<?xml version="1.0" encoding="UTF-8" standalone="no"?><!DOCTYPE svg PUBLIC "-//W3C//DTD SVG 1.1//EN" "http://www.w3.org/Graphics/SVG/1.1/DTD/svg11.dtd"><svg width="100%" height="100%" viewBox="0 0 91 110" version="1.1" xmlns="http://www.w3.org/2000/svg" xmlns:xlink="http://www.w3.org/1999/xlink" xml:space="preserve" xmlns:serif="http://www.serif.com/" style="fill-rule:evenodd;clip-rule:evenodd;stroke-linejoin:round;stroke-miterlimit:2;"><path d="M53.579,66.18l14.344,2.3c7.489,-0 13.584,6.044 13.624,13.533l0,0.149c0,14.995 -12.06,27.173 -27.01,27.363c-0.09,0.001 -0.18,0.002 -0.271,0.002l-50.77,0c-1.931,0 -3.496,-1.565 -3.496,-3.495l0,-10.187c0,-7.557 6.126,-13.683 13.682,-13.683l40.415,0c3.772,0 6.898,-3.017 6.927,-6.789c0.028,-3.802 -3.649,-9.193 -7.445,-9.193Z" style="fill:url(#_Linear1);"/><path d="M55.489,41.115l14.344,-2.178c7.489,-0 13.584,-5.723 13.624,-12.814l0,-0.142c0,-14.199 -12.06,-25.731 -27.01,-25.911c-0.09,-0 -0.18,-0.001 -0.271,-0.001c-0.027,-0 -0.052,-0.001 -0.079,-0.001l-51.828,-0c-1.931,-0 -4.269,2.44 -4.269,4.269l0,8.536c0,7.156 5.249,12.805 12.805,12.805l43.202,0.303c3.772,-0 6.898,2.857 6.927,6.429c0.028,3.601 -3.649,8.705 -7.445,8.705Z" style="fill:url(#_Linear2);"/><path d="M3.098,43.86c0,-1.901 1.556,-3.442 3.476,-3.442l50.405,0c11.267,-0.004 20.399,-9.05 20.399,-20.209c0,-11.16 -9.136,-20.209 -20.406,-20.209c18.82,0 34.07,15.138 34.011,33.79c-0.025,7.668 -2.654,14.722 -7.05,20.362c4.396,5.696 7.025,12.82 7.05,20.563c0.059,18.834 -15.191,34.12 -34.011,34.12c11.27,0 20.406,-9.136 20.406,-20.406c0,-11.268 -9.132,-20.404 -20.399,-20.407l-50.405,0c-1.92,0 -3.476,-1.556 -3.476,-3.476l0,-20.686Z" style="fill:url(#_Linear3);"/><defs><linearGradient id="_Linear1" x1="0" y1="0" x2="1" y2="0" gradientUnits="userSpaceOnUse" gradientTransform="matrix(-57.3713,7.02596e-15,-7.02596e-15,-57.3713,74.4449,17.1417)"><stop offset="0" style="stop-color:#00cbff;stop-opacity:1"/><stop offset="0.35" style="stop-color:#21b0e0;stop-opacity:1"/><stop offset="1" style="stop-color:#0090ff;stop-opacity:1"/></linearGradient><linearGradient id="_Linear2" x1="0" y1="0" x2="1" y2="0" gradientUnits="userSpaceOnUse" gradientTransform="matrix(-57.3713,7.02596e-15,-7.02596e-15,-57.3713,74.4449,17.1417)"><stop offset="0" style="stop-color:#00cbff;stop-opacity:1"/><stop offset="0.35" style="stop-color:#21b0e0;stop-opacity:1"/><stop offset="1" style="stop-color:#0090ff;stop-opacity:1"/></linearGradient><linearGradient id="_Linear3" x1="0" y1="0" x2="1" y2="0" gradientUnits="userSpaceOnUse" gradientTransform="matrix(81.0822,0,0,81.0822,4.9973,55.1727)"><stop offset="0" style="stop-color:#427bbe;stop-opacity:1"/><stop offset="0.3" style="stop-color:#1a9ad4;stop-opacity:1"/><stop offset="0.7" style="stop-color:#30b796;stop-opacity:1"/><stop offset="1" style="stop-color:#60bd69;stop-opacity:1"/></linearGradient></defs></svg>