<?xml version="1.0" encoding="UTF-8" standalone="no"?><!DOCTYPE svg PUBLIC "-//W3C//DTD SVG 1.1//EN" "http://www.w3.org/Graphics/SVG/1.1/DTD/svg11.dtd"><svg width="100%" height="100%" viewBox="0 0 511 171" version="1.1" xmlns="http://www.w3.org/2000/svg" xmlns:xlink="http://www.w3.org/1999/xlink" xml:space="preserve" xmlns:serif="http://www.serif.com/" style="fill-rule:evenodd;clip-rule:evenodd;stroke-linejoin:round;stroke-miterlimit:2;"><path d="M61.002,91.556l14.344,2.3c7.489,-0 13.584,6.044 13.624,13.533c0,0.05 0,0.099 0,0.149c0,14.995 -12.06,27.173 -27.01,27.363c-0.09,0.001 -0.18,0.002 -0.271,0.002c-0.027,-0 -0.052,0 -0.079,0l-50.691,0c-1.931,0 -3.496,-1.565 -3.496,-3.495l0,-10.187c0,-7.557 6.126,-13.683 13.682,-13.683l40.415,0c3.772,0 6.898,-3.017 6.927,-6.789c0.028,-3.802 -3.649,-9.193 -7.445,-9.193l-0,-0Z" style="fill:url(#_Linear1);"/><path d="M62.912,66.491l14.344,-2.178c7.489,0 13.584,-5.723 13.624,-12.814c0,-0.047 0,-0.095 0,-0.142c0,-14.199 -12.06,-25.731 -27.01,-25.911c-0.09,-0 -0.18,-0.001 -0.271,-0.001c-0.027,-0 -0.052,-0.001 -0.079,-0.001l-51.828,0c-1.931,0 -4.269,2.44 -4.269,4.269l0,8.536c0,7.156 5.249,12.805 12.805,12.805l43.202,0.303c3.772,0 6.898,2.857 6.927,6.429c0.028,3.601 -3.649,8.705 -7.445,8.705l-0,0Z" style="fill:url(#_Linear2);"/><path d="M10.521,69.236c0,-1.901 1.556,-3.442 3.476,-3.442l50.405,-0c11.267,-0.004 20.399,-9.05 20.399,-20.209c0,-11.16 -9.136,-20.209 -20.406,-20.209c18.82,0 34.07,15.138 34.011,33.79c-0.025,7.668 -2.654,14.722 -7.05,20.362c4.396,5.696 7.025,12.82 7.05,20.563c0.059,18.834 -15.191,34.12 -34.011,34.12c11.27,0 20.406,-9.136 20.406,-20.406c0,-11.268 -9.132,-20.404 -20.399,-20.407l-50.405,0c-1.92,0 -3.476,-1.556 -3.476,-3.476l0,-20.686l0,-0Z" style="fill:url(#_Linear3);"/><path d="M105.565,97.227l6.73,-32.139l10.984,-0c2.382,-0 4.048,0.073 4.998,0.219c1.579,0.219 2.916,0.658 4.012,1.315c1.097,0.658 1.93,1.535 2.5,2.631c0.57,1.096 0.855,2.309 0.855,3.639c-0,1.783 -0.497,3.329 -1.491,4.637c-0.994,1.308 -2.529,2.298 -4.604,2.971c1.652,0.453 2.941,1.26 3.869,2.422c0.928,1.162 1.393,2.474 1.393,3.935c-0,1.93 -0.549,3.76 -1.645,5.492c-1.096,1.732 -2.609,2.978 -4.538,3.738c-1.929,0.76 -4.567,1.14 -7.914,1.14l-15.149,0Zm10.611,-19.161l5.042,0c2.266,0 3.895,-0.161 4.889,-0.482c0.994,-0.322 1.739,-0.848 2.236,-1.579c0.497,-0.73 0.746,-1.512 0.746,-2.345c-0,-0.819 -0.234,-1.491 -0.702,-2.017c-0.468,-0.527 -1.133,-0.877 -1.995,-1.053c-0.482,-0.087 -1.644,-0.131 -3.486,-0.131l-5.13,-0l-1.6,7.607Zm-2.916,13.987l6.38,0c2.674,0 4.468,-0.172 5.382,-0.515c0.913,-0.344 1.644,-0.91 2.192,-1.699c0.548,-0.789 0.822,-1.622 0.822,-2.499c0,-1.067 -0.394,-1.948 -1.184,-2.642c-0.789,-0.694 -2.104,-1.041 -3.946,-1.041l-7.892,-0l-1.754,8.396Z" style="fill:#0090ff;fill-rule:nonzero;"/><path d="M146.868,80.543l-6.138,-0.526c0.701,-2.075 1.925,-3.697 3.672,-4.867c1.746,-1.169 4.059,-1.754 6.939,-1.754c2.996,0 5.21,0.603 6.642,1.809c1.433,1.206 2.149,2.678 2.149,4.418c-0,0.701 -0.062,1.447 -0.187,2.236c-0.124,0.789 -0.559,2.864 -1.304,6.226c-0.614,2.777 -0.921,4.721 -0.921,5.832c0,0.993 0.176,2.097 0.526,3.31l-6.116,0c-0.249,-0.848 -0.402,-1.725 -0.461,-2.631c-0.92,1.023 -1.98,1.809 -3.178,2.357c-1.199,0.548 -2.405,0.822 -3.618,0.822c-1.929,0 -3.522,-0.632 -4.779,-1.896c-1.257,-1.264 -1.885,-2.89 -1.885,-4.878c-0,-2.222 0.69,-3.998 2.071,-5.328c1.382,-1.33 3.848,-2.133 7.399,-2.411c2.997,-0.249 4.999,-0.548 6.007,-0.899c0.263,-0.877 0.395,-1.578 0.395,-2.105c0,-0.672 -0.27,-1.235 -0.811,-1.688c-0.541,-0.453 -1.345,-0.679 -2.412,-0.679c-1.125,-0 -2.013,0.23 -2.663,0.69c-0.651,0.461 -1.093,1.115 -1.327,1.962Zm5.985,5.832c-0.38,0.102 -0.884,0.197 -1.512,0.285c-3.157,0.38 -5.218,0.935 -6.183,1.666c-0.687,0.526 -1.03,1.235 -1.03,2.127c-0,0.731 0.263,1.348 0.789,1.852c0.526,0.504 1.221,0.757 2.083,0.757c0.95,-0 1.845,-0.231 2.685,-0.691c0.841,-0.46 1.469,-1.052 1.886,-1.776c0.416,-0.723 0.785,-1.852 1.107,-3.387l0.175,-0.833Z" style="fill:#0090ff;fill-rule:nonzero;"/><path d="M167.915,73.945l5.963,-0l-0.614,3.025c1.491,-1.286 2.883,-2.203 4.176,-2.751c1.294,-0.548 2.657,-0.823 4.089,-0.823c1.915,0 3.424,0.549 4.527,1.645c1.104,1.096 1.655,2.55 1.655,4.362c0,0.819 -0.241,2.368 -0.723,4.648l-2.741,13.176l-6.292,0l2.763,-13.22c0.409,-1.973 0.614,-3.149 0.614,-3.529c-0,-0.804 -0.238,-1.436 -0.713,-1.897c-0.475,-0.46 -1.136,-0.69 -1.984,-0.69c-0.921,-0 -1.944,0.387 -3.069,1.162c-1.126,0.774 -2.01,1.797 -2.653,3.069c-0.468,0.906 -0.994,2.755 -1.578,5.546l-1.995,9.559l-6.292,0l4.867,-23.282Z" style="fill:#0090ff;fill-rule:nonzero;"/><path d="M199.265,80.543l-6.139,-0.526c0.702,-2.075 1.926,-3.697 3.672,-4.867c1.747,-1.169 4.06,-1.754 6.939,-1.754c2.996,0 5.211,0.603 6.643,1.809c1.432,1.206 2.148,2.678 2.148,4.418c0,0.701 -0.062,1.447 -0.186,2.236c-0.124,0.789 -0.559,2.864 -1.304,6.226c-0.614,2.777 -0.921,4.721 -0.921,5.832c-0,0.993 0.175,2.097 0.526,3.31l-6.117,0c-0.248,-0.848 -0.402,-1.725 -0.46,-2.631c-0.921,1.023 -1.98,1.809 -3.179,2.357c-1.198,0.548 -2.404,0.822 -3.617,0.822c-1.929,0 -3.523,-0.632 -4.779,-1.896c-1.257,-1.264 -1.886,-2.89 -1.886,-4.878c0,-2.222 0.691,-3.998 2.072,-5.328c1.381,-1.33 3.847,-2.133 7.399,-2.411c2.996,-0.249 4.998,-0.548 6.007,-0.899c0.263,-0.877 0.395,-1.578 0.395,-2.105c-0,-0.672 -0.271,-1.235 -0.812,-1.688c-0.54,-0.453 -1.344,-0.679 -2.411,-0.679c-1.126,-0 -2.013,0.23 -2.664,0.69c-0.65,0.461 -1.092,1.115 -1.326,1.962Zm5.985,5.832c-0.38,0.102 -0.884,0.197 -1.513,0.285c-3.157,0.38 -5.218,0.935 -6.182,1.666c-0.687,0.526 -1.031,1.235 -1.031,2.127c0,0.731 0.263,1.348 0.79,1.852c0.526,0.504 1.22,0.757 2.082,0.757c0.95,-0 1.846,-0.231 2.686,-0.691c0.84,-0.46 1.469,-1.052 1.885,-1.776c0.417,-0.723 0.786,-1.852 1.107,-3.387l0.176,-0.833Z" style="fill:#0090ff;fill-rule:nonzero;"/><path d="M214.545,90.716l6.095,-0.965c0.541,1.286 1.213,2.196 2.017,2.73c0.804,0.533 1.9,0.8 3.288,0.8c1.433,-0 2.58,-0.322 3.442,-0.965c0.6,-0.438 0.899,-0.972 0.899,-1.6c0,-0.424 -0.153,-0.804 -0.46,-1.14c-0.322,-0.322 -1.191,-0.716 -2.609,-1.184c-3.8,-1.257 -6.153,-2.251 -7.059,-2.982c-1.418,-1.14 -2.127,-2.63 -2.127,-4.472c0,-1.841 0.687,-3.427 2.061,-4.757c1.914,-1.856 4.757,-2.785 8.528,-2.785c2.996,0 5.262,0.549 6.796,1.645c1.535,1.096 2.507,2.579 2.916,4.45l-5.81,1.009c-0.307,-0.848 -0.804,-1.484 -1.49,-1.908c-0.936,-0.57 -2.061,-0.855 -3.377,-0.855c-1.315,0 -2.261,0.22 -2.839,0.658c-0.577,0.438 -0.866,0.943 -0.866,1.513c0,0.584 0.293,1.067 0.877,1.447c0.366,0.233 1.542,0.643 3.53,1.227c3.069,0.892 5.123,1.769 6.16,2.631c1.462,1.213 2.193,2.675 2.193,4.385c-0,2.207 -0.928,4.121 -2.785,5.744c-1.856,1.622 -4.472,2.433 -7.848,2.433c-3.362,0 -5.96,-0.617 -7.794,-1.852c-1.834,-1.235 -3.08,-2.971 -3.738,-5.207Z" style="fill:#0090ff;fill-rule:nonzero;"/><path d="M254.358,97.227l-6.621,0l5.612,-26.768l-9.427,-0l1.118,-5.371l25.322,-0l-1.118,5.371l-9.296,-0l-5.59,26.768Z" style="fill:#0090ff;fill-rule:nonzero;"/><path d="M288.755,87.537l-15.784,-0c-0.015,0.248 -0.022,0.438 -0.022,0.57c-0,1.549 0.442,2.799 1.326,3.749c0.884,0.95 1.962,1.425 3.234,1.425c2.09,-0 3.719,-1.082 4.889,-3.245l5.634,0.943c-1.096,2.265 -2.561,3.964 -4.396,5.097c-1.834,1.133 -3.891,1.699 -6.171,1.699c-3.128,0 -5.671,-0.99 -7.629,-2.97c-1.959,-1.981 -2.938,-4.601 -2.938,-7.86c-0,-3.186 0.884,-6.022 2.653,-8.506c2.411,-3.362 5.853,-5.043 10.325,-5.043c2.85,0 5.116,0.881 6.797,2.642c1.68,1.761 2.521,4.228 2.521,7.399c-0,1.52 -0.146,2.887 -0.439,4.1Zm-5.305,-3.837c0.015,-0.277 0.022,-0.489 0.022,-0.635c-0,-1.725 -0.387,-3.018 -1.162,-3.881c-0.775,-0.862 -1.812,-1.293 -3.113,-1.293c-1.301,-0 -2.467,0.489 -3.497,1.469c-1.03,0.979 -1.728,2.426 -2.094,4.34l9.844,0Z" style="fill:#0090ff;fill-rule:nonzero;"/><path d="M306.842,88.458l6.117,0.986c-1.009,2.719 -2.5,4.787 -4.473,6.205c-1.973,1.417 -4.26,2.126 -6.862,2.126c-2.967,0 -5.32,-0.884 -7.059,-2.653c-1.739,-1.768 -2.609,-4.202 -2.609,-7.3c0,-2.529 0.526,-4.918 1.579,-7.169c1.052,-2.251 2.638,-4.023 4.757,-5.316c2.119,-1.294 4.443,-1.941 6.972,-1.941c2.747,0 4.94,0.717 6.577,2.149c1.636,1.432 2.557,3.318 2.762,5.656l-5.985,0.636c-0.146,-1.301 -0.545,-2.258 -1.195,-2.872c-0.65,-0.614 -1.502,-0.921 -2.554,-0.921c-1.213,0 -2.346,0.453 -3.398,1.359c-1.052,0.907 -1.86,2.262 -2.423,4.067c-0.562,1.805 -0.844,3.497 -0.844,5.075c0,1.374 0.336,2.434 1.009,3.179c0.672,0.746 1.512,1.118 2.521,1.118c1.008,0 1.98,-0.365 2.916,-1.096c0.935,-0.731 1.666,-1.827 2.192,-3.288Z" style="fill:#0090ff;fill-rule:nonzero;"/><path d="M322.407,97.227l-6.291,0l6.73,-32.139l6.292,-0l-2.412,11.444c1.418,-1.111 2.741,-1.911 3.968,-2.401c1.228,-0.49 2.544,-0.735 3.947,-0.735c1.885,0 3.376,0.541 4.472,1.623c1.096,1.081 1.644,2.499 1.644,4.253c0,0.935 -0.204,2.382 -0.614,4.341l-2.85,13.614l-6.292,0l2.916,-13.877c0.307,-1.506 0.461,-2.47 0.461,-2.894c-0,-0.775 -0.242,-1.396 -0.724,-1.864c-0.482,-0.467 -1.14,-0.701 -1.973,-0.701c-1.052,-0 -2.061,0.365 -3.025,1.096c-1.257,0.965 -2.215,2.148 -2.872,3.551c-0.366,0.775 -0.848,2.595 -1.447,5.459l-1.93,9.23Z" style="fill:#0090ff;fill-rule:nonzero;"/><path d="M348.408,73.945l5.964,-0l-0.614,3.025c1.49,-1.286 2.883,-2.203 4.176,-2.751c1.294,-0.548 2.656,-0.823 4.089,-0.823c1.914,0 3.423,0.549 4.527,1.645c1.103,1.096 1.655,2.55 1.655,4.362c0,0.819 -0.241,2.368 -0.723,4.648l-2.741,13.176l-6.292,0l2.763,-13.22c0.409,-1.973 0.613,-3.149 0.613,-3.529c0,-0.804 -0.237,-1.436 -0.712,-1.897c-0.475,-0.46 -1.136,-0.69 -1.984,-0.69c-0.921,-0 -1.944,0.387 -3.069,1.162c-1.126,0.774 -2.01,1.797 -2.653,3.069c-0.468,0.906 -0.994,2.755 -1.579,5.546l-1.995,9.559l-6.292,0l4.867,-23.282Z" style="fill:#0090ff;fill-rule:nonzero;"/><path d="M371.801,87.559c-0,-4.312 1.216,-7.75 3.65,-10.315c2.433,-2.565 5.63,-3.848 9.591,-3.848c3.435,0 6.117,0.947 8.046,2.84c1.929,1.892 2.894,4.439 2.894,7.64c-0,3.771 -1.206,7.03 -3.618,9.778c-2.411,2.747 -5.641,4.121 -9.69,4.121c-2.192,0 -4.136,-0.438 -5.831,-1.315c-1.696,-0.877 -2.96,-2.12 -3.793,-3.727c-0.833,-1.608 -1.249,-3.333 -1.249,-5.174Zm17.933,-4.494c-0,-1.491 -0.435,-2.686 -1.305,-3.585c-0.869,-0.899 -1.991,-1.348 -3.365,-1.348c-1.359,-0 -2.565,0.42 -3.617,1.26c-1.053,0.841 -1.871,2.061 -2.456,3.662c-0.584,1.6 -0.877,3.073 -0.877,4.417c0,1.666 0.453,2.989 1.36,3.968c0.906,0.98 2.046,1.469 3.42,1.469c1.724,0 3.171,-0.738 4.34,-2.214c1.667,-2.09 2.5,-4.633 2.5,-7.629Z" style="fill:#0090ff;fill-rule:nonzero;"/><path d="M398.262,97.227l6.73,-32.139l6.27,-0l-6.708,32.139l-6.292,0Z" style="fill:#0090ff;fill-rule:nonzero;"/><path d="M411.701,87.559c-0,-4.312 1.216,-7.75 3.65,-10.315c2.433,-2.565 5.631,-3.848 9.591,-3.848c3.435,0 6.117,0.947 8.046,2.84c1.929,1.892 2.894,4.439 2.894,7.64c0,3.771 -1.206,7.03 -3.617,9.778c-2.412,2.747 -5.642,4.121 -9.69,4.121c-2.193,0 -4.137,-0.438 -5.832,-1.315c-1.695,-0.877 -2.96,-2.12 -3.793,-3.727c-0.833,-1.608 -1.249,-3.333 -1.249,-5.174Zm17.933,-4.494c-0,-1.491 -0.435,-2.686 -1.304,-3.585c-0.87,-0.899 -1.992,-1.348 -3.366,-1.348c-1.359,-0 -2.565,0.42 -3.617,1.26c-1.052,0.841 -1.871,2.061 -2.455,3.662c-0.585,1.6 -0.877,3.073 -0.877,4.417c-0,1.666 0.453,2.989 1.359,3.968c0.906,0.98 2.046,1.469 3.42,1.469c1.725,0 3.171,-0.738 4.341,-2.214c1.666,-2.09 2.499,-4.633 2.499,-7.629Z" style="fill:#0090ff;fill-rule:nonzero;"/><path d="M437.877,98.455l6.643,0.964c-0,0.673 0.109,1.181 0.329,1.524c0.219,0.343 0.573,0.636 1.063,0.877c0.49,0.241 1.158,0.362 2.006,0.362c1.33,-0 2.397,-0.263 3.201,-0.79c0.599,-0.409 1.089,-1.067 1.469,-1.973c0.233,-0.57 0.533,-1.812 0.898,-3.727l0.22,-1.096c-2.178,1.813 -4.429,2.719 -6.753,2.719c-2.28,-0 -4.151,-0.804 -5.612,-2.412c-1.462,-1.608 -2.192,-3.961 -2.192,-7.059c-0,-2.733 0.497,-5.24 1.49,-7.52c0.994,-2.28 2.39,-4.004 4.188,-5.174c1.797,-1.169 3.632,-1.754 5.502,-1.754c1.55,0 2.967,0.41 4.254,1.228c1.286,0.819 2.287,1.966 3.003,3.442l0.877,-4.121l5.897,-0l-4.034,19.402c-0.657,3.113 -1.213,5.334 -1.666,6.664c-0.453,1.33 -0.972,2.39 -1.556,3.179c-0.585,0.789 -1.323,1.451 -2.215,1.984c-0.891,0.534 -1.943,0.917 -3.156,1.151c-1.214,0.234 -2.529,0.351 -3.947,0.351c-3.288,-0 -5.773,-0.563 -7.454,-1.688c-1.68,-1.126 -2.521,-2.996 -2.521,-5.613c0,-0.277 0.022,-0.584 0.066,-0.92Zm7.41,-11.247c0,1.769 0.398,3.117 1.195,4.045c0.796,0.928 1.794,1.392 2.992,1.392c1.097,0 2.16,-0.416 3.19,-1.25c1.031,-0.833 1.82,-2.016 2.368,-3.551c0.548,-1.535 0.822,-3.018 0.822,-4.451c0,-1.651 -0.446,-2.981 -1.337,-3.99c-0.892,-1.008 -1.922,-1.512 -3.091,-1.512c-1.126,-0 -2.16,0.446 -3.103,1.337c-0.942,0.892 -1.72,2.265 -2.334,4.122c-0.468,1.432 -0.702,2.718 -0.702,3.858Z" style="fill:#0090ff;fill-rule:nonzero;"/><path d="M472.34,65.088l6.292,-0l-1.184,5.7l-6.291,-0l1.183,-5.7Zm-1.841,8.857l6.292,-0l-4.867,23.282l-6.292,0l4.867,-23.282Z" style="fill:#0090ff;fill-rule:nonzero;"/><path d="M500.775,87.537l-15.785,-0c-0.015,0.248 -0.022,0.438 -0.022,0.57c0,1.549 0.442,2.799 1.327,3.749c0.884,0.95 1.962,1.425 3.233,1.425c2.09,-0 3.72,-1.082 4.889,-3.245l5.634,0.943c-1.096,2.265 -2.561,3.964 -4.395,5.097c-1.835,1.133 -3.892,1.699 -6.172,1.699c-3.127,0 -5.67,-0.99 -7.629,-2.97c-1.958,-1.981 -2.938,-4.601 -2.938,-7.86c0,-3.186 0.885,-6.022 2.653,-8.506c2.412,-3.362 5.854,-5.043 10.326,-5.043c2.85,0 5.115,0.881 6.796,2.642c1.681,1.761 2.521,4.228 2.521,7.399c0,1.52 -0.146,2.887 -0.438,4.1Zm-5.306,-3.837c0.015,-0.277 0.022,-0.489 0.022,-0.635c0,-1.725 -0.387,-3.018 -1.162,-3.881c-0.774,-0.862 -1.812,-1.293 -3.113,-1.293c-1.301,-0 -2.466,0.489 -3.496,1.469c-1.031,0.979 -1.729,2.426 -2.094,4.34l9.843,0Z" style="fill:#0090ff;fill-rule:nonzero;"/><defs><linearGradient id="_Linear1" x1="0" y1="0" x2="1" y2="0" gradientUnits="userSpaceOnUse" gradientTransform="matrix(-57.3713,7.02596e-15,-7.02596e-15,-57.3713,81.8679,42.5177)"><stop offset="0" style="stop-color:#00cbff;stop-opacity:1"/><stop offset="0.35" style="stop-color:#21b0e0;stop-opacity:1"/><stop offset="1" style="stop-color:#0090ff;stop-opacity:1"/></linearGradient><linearGradient id="_Linear2" x1="0" y1="0" x2="1" y2="0" gradientUnits="userSpaceOnUse" gradientTransform="matrix(-57.3713,7.02596e-15,-7.02596e-15,-57.3713,81.8679,42.5177)"><stop offset="0" style="stop-color:#00cbff;stop-opacity:1"/><stop offset="0.35" style="stop-color:#21b0e0;stop-opacity:1"/><stop offset="1" style="stop-color:#0090ff;stop-opacity:1"/></linearGradient><linearGradient id="_Linear3" x1="0" y1="0" x2="1" y2="0" gradientUnits="userSpaceOnUse" gradientTransform="matrix(81.0822,0,0,81.0822,12.4203,80.5487)"><stop offset="0" style="stop-color:#427bbe;stop-opacity:1"/><stop offset="0.3" style="stop-color:#1a9ad4;stop-opacity:1"/><stop offset="0.7" style="stop-color:#30b796;stop-opacity:1"/><stop offset="1" style="stop-color:#60bd69;stop-opacity:1"/></linearGradient></defs></svg>